<?xml version="1.0" standalone="no"?>
<!DOCTYPE svg PUBLIC "-//W3C//DTD SVG 20010904//EN"
 "http://www.w3.org/TR/2001/REC-SVG-20010904/DTD/svg10.dtd">
<svg version="1.0" xmlns="http://www.w3.org/2000/svg"
 width="120.000000pt" height="120.000000pt" viewBox="0 0 120.000000 120.000000"
 preserveAspectRatio="xMidYMid meet">
<metadata>
Created by potrace 1.11, written by Peter Selinger 2001-2013
</metadata>
<g transform="translate(0.000000,120.000000) scale(0.100000,-0.100000)"
fill="#000000" stroke="none">
<path d="M0 600 l0 -600 600 0 600 0 0 600 0 600 -600 0 -600 0 0 -600z m707
159 c24 -11 43 -24 43 -28 0 -4 -11 -18 -24 -30 -20 -19 -28 -21 -44 -12 -56
30 -141 -6 -156 -65 -9 -36 10 -89 39 -108 34 -22 97 -20 126 4 l24 19 -42 1
c-42 0 -43 1 -43 35 l0 35 85 0 85 0 0 -38 c0 -75 -87 -152 -171 -152 -78 1
-162 66 -175 136 -16 88 23 170 100 205 54 24 100 24 153 -2z m191 -96 l-3
-118 -32 -3 -33 -3 0 120 0 121 35 0 36 0 -3 -117z m112 50 c0 -38 -3 -92 -6
-120 -6 -50 -8 -53 -35 -53 l-29 0 0 104 c0 57 -3 111 -6 120 -5 13 2 16 35
16 l41 0 0 -67z m-640 2 c35 -18 37 -26 10 -50 -16 -14 -23 -16 -32 -7 -18 18
-56 14 -78 -8 -28 -28 -28 -122 0 -150 11 -11 29 -20 40 -20 21 0 60 33 60 50
0 6 -13 10 -30 10 -25 0 -30 4 -30 25 0 24 3 25 60 25 l60 0 0 -39 c0 -57 -15
-88 -52 -112 -48 -29 -110 -21 -151 20 -28 27 -32 38 -35 100 -6 110 34 170
116 171 18 0 46 -7 62 -15z m528 -251 c4 -27 -21 -47 -48 -39 -20 6 -28 44
-13 59 15 15 58 1 61 -20z m109 10 c9 -24 -10 -49 -38 -49 -24 0 -36 23 -25
51 7 19 55 18 63 -2z"/>
</g>
</svg>
